<svg xmlns="http://www.w3.org/2000/svg" viewBox="0 0 69.26 69.26"><defs><style>.cls-1{fill:#edf0f1;}.cls-2,.cls-5{opacity:0.18;}.cls-3,.cls-4,.cls-5{fill:#231f20;stroke:#231f20;stroke-miterlimit:10;}.cls-4,.cls-5{stroke-width:0.25px;}</style></defs><title>Asset 1</title><g id="Layer_2" data-name="Layer 2"><g id="Layer_1-2" data-name="Layer 1"><circle class="cls-1" cx="34.63" cy="34.63" r="34.63"/><g id="Group_194" data-name="Group 194" class="cls-2"><path id="Path_1941" data-name="Path 1941" class="cls-3" d="M26.47,41s-10.17,2.72-12.1-6.82l-.16-10.31H24.4s4.22.09,9.4,6.24l-1.91,2.2s-4-5.1-7.49-5.63l-7.24,0,.07,7.48a6.39,6.39,0,0,0,7.51,4.59Z"/><path id="Path_1942" data-name="Path 1942" class="cls-3" d="M37.24,34.33,39.8,38l-5.14,7.43L29.45,38s8.49-14,15.44-14.19H55.05v10s-1.22,9.54-12.28,7.23l1.8-2.35s6.65,1,7.58-4.93l0-7.13H44.89S41.39,26.36,32.81,38l1.85,2.64,1.8-2.53L35.38,36.5Z"/></g><g id="Group_195" data-name="Group 195" class="cls-2"><ellipse id="Ellipse_189" data-name="Ellipse 189" class="cls-4" cx="46.18" cy="29.53" rx="1.43" ry="1.46"/><ellipse id="Ellipse_190" data-name="Ellipse 190" class="cls-4" cx="48.78" cy="32.46" rx="1.43" ry="1.46"/><ellipse id="Ellipse_191" data-name="Ellipse 191" class="cls-4" cx="43.68" cy="32.46" rx="1.43" ry="1.46"/><ellipse id="Ellipse_192" data-name="Ellipse 192" class="cls-4" cx="46.18" cy="35.12" rx="1.43" ry="1.46"/></g><ellipse id="Ellipse_193" data-name="Ellipse 193" class="cls-5" cx="22.54" cy="31.35" rx="2.62" ry="2.79"/></g></g></svg>